<svg width="281" height="40" viewBox="0 0 281 40" fill="none" xmlns="http://www.w3.org/2000/svg">
<g clip-path="url(#clip0_282_1488)">
<mask id="mask0_282_1488" style="mask-type:luminance" maskUnits="userSpaceOnUse" x="0" y="0" width="281" height="40">
<path d="M0.523438 0H280.523V40H0.523438V0Z" fill="white"/>
</mask>
<g mask="url(#mask0_282_1488)">
<path d="M14.6352 23.9555C16.9313 19.758 19.3773 15.6442 21.9685 11.6221C22.6352 16.2666 23.1018 20.3555 23.4352 23.9555C21.5907 24.0666 20.0574 24.1333 18.9018 24.1333C17.7463 24.1333 16.3685 24.0666 14.6352 23.9555ZM24.7018 38.8444C26.8574 38.5332 28.4796 38.3555 29.5907 38.3555C30.9685 38.3555 32.7685 38.5332 34.9685 38.8666C32.9376 30.5778 31.3869 22.1786 30.324 13.711L28.4796 0.822144C27.3685 0.977699 26.6352 1.04437 26.1685 1.04437C25.3052 1.0293 24.4439 0.955049 23.5907 0.822144C16.4367 13.7089 8.91511 26.3882 1.03516 38.8444C2.41293 38.6666 3.41293 38.6221 4.10182 38.6221C4.61293 38.6221 5.56849 38.6666 6.99071 38.8444C8.25738 35.7777 9.56849 33.4666 10.5685 31.6444L12.524 28.0221C14.9907 27.7999 16.7463 27.6888 17.7463 27.6888C19.2796 27.6888 21.324 27.7999 23.9018 28.0221L24.2796 31.5777C24.5018 33.6221 24.7463 35.5777 24.7463 37.511C24.7463 37.9555 24.7463 38.3999 24.7018 38.8444Z" fill="white"/>
<path d="M24.7018 38.8666C26.8574 38.5333 28.4796 38.3555 29.5907 38.3555C30.9685 38.3555 32.7685 38.5333 34.9685 38.8666C32.9376 30.5778 31.3869 22.1786 30.324 13.711L28.4796 0.822144C27.3685 0.977699 26.6352 1.04437 26.1685 1.04437C25.3052 1.0293 24.4439 0.955049 23.5907 0.822144C16.4367 13.7089 8.91511 26.3882 1.03516 38.8444C2.41293 38.6666 3.41293 38.6221 4.10182 38.6221C4.61293 38.6221 5.56849 38.6666 6.99071 38.8444C8.25738 35.7777 9.56849 33.4666 10.5685 31.6444L12.524 28.0221C14.9907 27.7999 16.7463 27.6888 17.7463 27.6888C19.2796 27.6888 21.324 27.7999 23.9018 28.0221L24.2796 31.5777C24.5018 33.6221 24.7463 35.5777 24.7463 37.511C24.7463 37.9555 24.7463 38.3999 24.7018 38.8444V38.8666Z" stroke="white" stroke-width="0.88"/>
<path d="M14.6367 23.9554C16.9328 19.7579 19.3789 15.6441 21.9701 11.6221C22.6367 16.2665 23.1034 20.3554 23.4367 23.9554C21.5923 24.0665 20.0589 24.1332 18.9034 24.1332C17.7478 24.1332 16.3701 24.0665 14.6367 23.9554Z" stroke="white" stroke-width="0.88"/>
<path d="M53.8144 39.5997C44.1477 39.5997 38.7922 34.0442 38.7922 25.2442C38.746 22.7716 39.2163 20.3165 40.1729 18.036C41.1295 15.7554 42.5514 13.6995 44.3477 11.9997C47.9044 8.63042 52.6264 6.76713 57.5255 6.79974C62.081 6.79974 65.8588 7.84418 68.7033 9.82196C67.8658 11.924 67.1607 14.0763 66.5922 16.2664L66.0144 16.1331C65.281 12.0886 62.3922 9.73307 58.1477 9.73307C56.439 9.66187 54.7435 10.0615 53.2465 10.8884C51.7494 11.7153 50.5084 12.9377 49.6588 14.422C47.8144 17.3108 46.5477 21.7553 46.5477 26.3331C46.5477 32.9553 49.481 36.4886 55.0366 36.4886C58.0588 36.4886 61.1699 35.1997 63.6588 32.822L64.281 33.4664C63.7001 34.7503 63.2533 36.0907 62.9477 37.4664C60.5033 38.7997 57.3477 39.5775 53.8144 39.5775" fill="white"/>
<path d="M53.8144 39.5997C44.1477 39.5997 38.7922 34.0442 38.7922 25.2442C38.746 22.7716 39.2163 20.3165 40.1729 18.036C41.1295 15.7554 42.5514 13.6995 44.3477 11.9997C47.9044 8.63042 52.6264 6.76713 57.5255 6.79974C62.081 6.79974 65.8588 7.84418 68.7033 9.82196C67.8658 11.924 67.1607 14.0763 66.5922 16.2664L66.0144 16.1331C65.281 12.0886 62.3922 9.73307 58.1477 9.73307C56.439 9.66187 54.7435 10.0615 53.2465 10.8884C51.7494 11.7153 50.5084 12.9377 49.6588 14.422C47.8144 17.3108 46.5477 21.7553 46.5477 26.3331C46.5477 32.9553 49.481 36.4886 55.0366 36.4886C58.0588 36.4886 61.1699 35.1997 63.6588 32.822L64.281 33.4664C63.7001 34.7503 63.2533 36.0907 62.9477 37.4664C60.5033 38.7997 57.3477 39.5775 53.8144 39.5775V39.5997Z" stroke="white" stroke-width="0.88"/>
<path d="M83.6347 39.6001C73.9458 39.6001 68.6125 34.0445 68.6125 25.2445C68.5663 22.7719 69.0366 20.3169 69.9932 18.0363C70.9498 15.7558 72.3717 13.6999 74.168 12.0001C77.7192 8.63611 82.4321 6.77322 87.3236 6.80009C91.8791 6.80009 95.6347 7.84454 98.5014 9.82231C97.7014 11.8223 97.0125 13.9334 96.3902 16.2668L95.8125 16.1334C95.0791 12.089 92.1902 9.73343 87.9458 9.73343C86.2371 9.66223 84.5416 10.0619 83.0446 10.8888C81.5475 11.7157 80.3065 12.938 79.4569 14.4223C77.6125 17.3112 76.3458 21.7556 76.3458 26.3334C76.3458 32.9557 79.2791 36.489 84.8347 36.489C87.8569 36.489 90.968 35.2001 93.4569 32.8223L94.0791 33.4668C93.5009 34.7517 93.0542 36.0919 92.7458 37.4668C90.3014 38.8001 87.168 39.5779 83.6347 39.5779" fill="white"/>
<path d="M83.6347 39.6001C73.9458 39.6001 68.6125 34.0445 68.6125 25.2445C68.5663 22.7719 69.0366 20.3169 69.9932 18.0363C70.9498 15.7558 72.3717 13.6999 74.168 12.0001C77.7192 8.63611 82.4321 6.77322 87.3236 6.80009C91.8791 6.80009 95.6347 7.84454 98.5014 9.82231C97.7014 11.8223 97.0125 13.9334 96.3902 16.2668L95.8125 16.1334C95.0791 12.089 92.1902 9.73343 87.9458 9.73343C86.2371 9.66223 84.5416 10.0619 83.0446 10.8888C81.5475 11.7157 80.3065 12.938 79.4569 14.4223C77.6125 17.3112 76.3458 21.7556 76.3458 26.3334C76.3458 32.9556 79.2791 36.489 84.8347 36.489C87.8569 36.489 90.968 35.2001 93.4569 32.8223L94.0791 33.4668C93.5009 34.7517 93.0542 36.0919 92.7458 37.4668C90.3014 38.8001 87.168 39.5779 83.6347 39.5779V39.6001Z" stroke="white" stroke-width="0.88"/>
<path d="M107.079 7.77767C107.901 7.77767 109.212 7.66656 110.923 7.44434C107.634 20.111 106.479 27.7777 106.479 30.0666C106.479 33.5777 108.523 35.5999 112.257 35.5999C115.968 35.5999 118.968 33.5999 120.723 29.7999C122.057 26.911 123.301 19.3999 125.279 7.44434C126.753 7.6511 128.249 7.6511 129.723 7.44434C126.545 20.8666 125.279 29.3332 123.612 32.511C121.123 37.2443 116.901 39.4443 110.745 39.4443C103.345 39.4443 99.5898 36.4221 99.5898 30.4443C99.5898 26.9554 101.545 19.3554 103.145 7.44434C104.879 7.62211 106.19 7.77767 107.057 7.77767" fill="white"/>
<path d="M107.079 7.77767C107.901 7.77767 109.212 7.66656 110.923 7.44434C107.634 20.111 106.479 27.7777 106.479 30.0666C106.479 33.5777 108.523 35.5999 112.257 35.5999C115.968 35.5999 118.968 33.5999 120.723 29.7999C122.057 26.911 123.301 19.3999 125.279 7.44434C126.753 7.6511 128.249 7.6511 129.723 7.44434C126.545 20.8666 125.279 29.3332 123.612 32.511C121.123 37.2443 116.901 39.4443 110.745 39.4443C103.345 39.4443 99.5898 36.4221 99.5898 30.4443C99.5898 26.9554 101.545 19.3554 103.145 7.44434C104.879 7.62211 106.19 7.77767 107.057 7.77767H107.079Z" stroke="white" stroke-width="0.88"/>
<path d="M130.658 24.5112C132.88 24.6446 134.658 24.7779 135.88 24.7779C137.702 24.7779 139.947 24.6446 142.48 24.5112C141.924 26.5335 141.524 28.5557 141.347 30.5779C139.292 30.3939 137.231 30.2827 135.169 30.2446C133.902 30.2446 132.013 30.4001 129.613 30.5779C130.147 28.6446 130.502 26.6223 130.658 24.5112Z" fill="white"/>
<path d="M130.658 24.5112C132.88 24.6446 134.658 24.7779 135.88 24.7779C137.702 24.7779 139.947 24.6446 142.48 24.5112C141.924 26.5335 141.524 28.5557 141.347 30.5779C139.292 30.3939 137.231 30.2827 135.169 30.2446C133.902 30.2446 132.013 30.4001 129.613 30.5779C130.147 28.6446 130.502 26.6223 130.658 24.5112Z" stroke="white" stroke-width="0.88"/>
<path d="M163.192 39.7332C151.548 39.7332 145.126 33.0443 145.126 22.4666C145.064 19.4894 145.626 16.5322 146.774 13.7846C147.922 11.037 149.631 8.55955 151.792 6.51101C156.089 2.45103 161.792 0.213033 167.703 0.266564C173.17 0.266564 177.703 1.53323 181.126 3.91101C180.192 6.28879 179.348 8.84434 178.592 11.6666L177.926 11.511C177.037 6.62212 173.548 3.7999 168.437 3.7999C163.948 3.7999 160.681 5.57768 158.215 9.44434C155.992 12.9332 154.459 18.2666 154.459 23.7999C154.459 31.7777 157.992 36.0221 164.681 36.0221C168.326 36.0221 172.059 34.4666 175.059 31.5999L175.815 32.3777C175.126 33.9332 174.592 35.4888 174.215 37.1999C170.812 38.9371 167.034 39.8073 163.215 39.7332" fill="white"/>
<path d="M163.192 39.7332C151.548 39.7332 145.126 33.0443 145.126 22.4666C145.064 19.4894 145.626 16.5322 146.774 13.7846C147.922 11.037 149.631 8.55955 151.792 6.51101C156.089 2.45103 161.792 0.213033 167.703 0.266564C173.17 0.266564 177.703 1.53323 181.126 3.91101C180.192 6.28879 179.348 8.84434 178.592 11.6666L177.926 11.511C177.037 6.62212 173.548 3.7999 168.437 3.7999C163.948 3.7999 160.681 5.57768 158.215 9.44434C155.992 12.9332 154.459 18.2666 154.459 23.7999C154.459 31.7777 157.992 36.0221 164.681 36.0221C168.326 36.0221 172.059 34.4666 175.059 31.5999L175.815 32.3777C175.126 33.9332 174.592 35.4888 174.215 37.1999C170.812 38.9371 167.034 39.8073 163.215 39.7332H163.192Z" stroke="white" stroke-width="0.88"/>
<path d="M188.659 30.8443C188.126 33.4666 187.77 36.1554 187.548 38.8443C186.23 38.6556 184.902 38.5517 183.57 38.5332C182.231 38.5581 180.895 38.6695 179.57 38.8666C183.104 24.8666 185.015 14.3332 185.726 7.44434C187.326 7.62211 188.57 7.77767 189.504 7.77767C190.481 7.77767 191.837 7.66656 193.593 7.44434C192.681 10.6221 192.237 12.911 191.926 14.3999L190.748 19.9999C194.643 20.142 198.542 20.142 202.437 19.9999L203.348 15.4443C203.748 13.4666 204.193 10.7999 204.526 7.44434C206.237 7.66656 207.548 7.77767 208.526 7.77767C209.858 7.75182 211.186 7.64048 212.504 7.44434C208.993 21.4443 207.081 31.9554 206.37 38.8666C204.704 38.6443 203.526 38.5332 202.815 38.5332C201.57 38.5332 200.126 38.6666 198.459 38.8666C199.281 35.6443 199.793 33.311 200.126 31.911L201.77 23.7777C199.504 23.6888 197.393 23.5777 195.437 23.5777C194.504 23.5777 192.77 23.6443 190.104 23.7777L188.659 30.8443Z" fill="white"/>
<path d="M188.659 30.8443C188.126 33.4666 187.77 36.1554 187.548 38.8443C186.23 38.6556 184.902 38.5517 183.57 38.5332C182.231 38.5581 180.895 38.6695 179.57 38.8666C183.104 24.8666 185.015 14.3332 185.726 7.44434C187.326 7.62211 188.57 7.77767 189.504 7.77767C190.481 7.77767 191.837 7.66656 193.593 7.44434C192.681 10.6221 192.237 12.911 191.926 14.3999L190.748 19.9999C194.643 20.142 198.542 20.142 202.437 19.9999L203.348 15.4443C203.748 13.4666 204.193 10.7999 204.526 7.44434C206.237 7.66656 207.548 7.77767 208.526 7.77767C209.858 7.75182 211.186 7.64048 212.504 7.44434C208.993 21.4443 207.081 31.9554 206.37 38.8666C204.704 38.6443 203.526 38.5332 202.815 38.5332C201.57 38.5332 200.126 38.6666 198.459 38.8666C199.281 35.6443 199.793 33.311 200.126 31.911L201.77 23.7777C199.504 23.6888 197.393 23.5777 195.437 23.5777C194.504 23.5777 192.77 23.6443 190.104 23.7777L188.659 30.8443Z" stroke="white" stroke-width="0.88"/>
<path d="M218.369 7.44434C221.213 7.66656 223.88 7.77767 226.413 7.77767C228.969 7.77767 232.191 7.62211 235.969 7.44434C235.346 8.73322 235.08 10.0221 234.991 11.4888C232.568 11.0786 230.115 10.8631 227.658 10.8443C226.858 10.8443 226.102 10.911 225.324 10.9332C224.835 12.1777 224.569 13.5554 224.28 15.1332L223.302 20.3777C225.08 20.4666 226.413 20.5554 227.146 20.5554C228.858 20.5554 230.791 20.4221 232.924 20.2888C232.48 21.4221 232.258 22.511 232.258 23.7332V24.3332C229.704 24.0568 227.137 23.9158 224.569 23.911L222.635 23.9554L221.413 29.9554C221.035 31.911 220.724 33.6666 220.591 35.1777C224.035 35.1332 227.635 34.911 231.391 34.5777C230.94 35.9709 230.642 37.409 230.502 38.8666C227.305 38.6949 224.104 38.5985 220.902 38.5777C219.058 38.5777 216.169 38.6666 212.324 38.8666C215.131 28.5605 217.152 18.0562 218.369 7.44434Z" fill="white"/>
<path d="M218.369 7.44434C221.213 7.66656 223.88 7.77767 226.413 7.77767C228.969 7.77767 232.191 7.62211 235.969 7.44434C235.346 8.73322 235.08 10.0221 234.991 11.4888C232.568 11.0786 230.115 10.8631 227.658 10.8443C226.858 10.8443 226.102 10.911 225.324 10.9332C224.835 12.1777 224.569 13.5554 224.28 15.1332L223.302 20.3777C225.08 20.4666 226.413 20.5554 227.146 20.5554C228.858 20.5554 230.791 20.4221 232.924 20.2888C232.48 21.4221 232.258 22.511 232.258 23.7332V24.3332C229.704 24.0568 227.137 23.9158 224.569 23.911L222.635 23.9554L221.413 29.9554C221.035 31.911 220.724 33.6666 220.591 35.1777C224.035 35.1332 227.635 34.911 231.391 34.5777C230.94 35.9709 230.642 37.409 230.502 38.8666C227.305 38.6949 224.104 38.5985 220.902 38.5777C219.058 38.5777 216.169 38.6666 212.324 38.8666C215.131 28.5605 217.152 18.0562 218.369 7.44434Z" stroke="white" stroke-width="0.88"/>
<path d="M246.946 15.111L245.679 21.8443L251.634 16.2888C253.368 14.6221 256.057 11.6666 259.501 7.44434C260.834 7.62211 261.701 7.711 262.168 7.711C262.879 7.711 263.834 7.62211 265.101 7.44434L265.057 7.99989C260.225 12.2673 255.583 16.7457 251.146 21.4221C253.19 25.9777 255.901 31.7777 259.501 38.8666C257.79 38.6888 256.434 38.5777 255.39 38.5777C254.234 38.5777 252.768 38.6888 250.946 38.8666C249.323 34.1643 247.37 29.5826 245.101 25.1554L244.101 29.8221C243.504 32.8116 243.067 35.8306 242.79 38.8666C241.012 38.6443 239.679 38.5332 238.723 38.5332C237.746 38.5332 236.523 38.6221 234.879 38.8666C238.768 23.311 240.501 12.6888 240.946 7.44434C242.701 7.66656 243.879 7.75545 244.59 7.75545C245.768 7.75545 247.212 7.66656 248.857 7.48878C248.014 9.97358 247.375 12.5227 246.946 15.111Z" fill="white"/>
<path d="M246.946 15.111L245.679 21.8443L251.634 16.2888C253.368 14.6221 256.057 11.6666 259.501 7.44434C260.834 7.62211 261.701 7.711 262.168 7.711C262.879 7.711 263.834 7.62211 265.101 7.44434L265.057 7.99989C260.225 12.2673 255.583 16.7457 251.146 21.4221C253.19 25.9777 255.901 31.7777 259.501 38.8666C257.79 38.6888 256.434 38.5777 255.39 38.5777C254.234 38.5777 252.768 38.6888 250.946 38.8666C249.323 34.1643 247.37 29.5826 245.101 25.1554L244.101 29.8221C243.504 32.8116 243.067 35.8306 242.79 38.8666C241.012 38.6443 239.679 38.5332 238.723 38.5332C237.746 38.5332 236.523 38.6221 234.879 38.8666C238.768 23.311 240.501 12.6888 240.946 7.44434C242.701 7.66656 243.879 7.75545 244.59 7.75545C245.768 7.75545 247.212 7.66656 248.857 7.48878C248.014 9.97358 247.375 12.5227 246.946 15.111Z" stroke="white" stroke-width="0.88"/>
<path d="M275.746 7.64435C276.281 7.63177 276.812 7.72888 277.307 7.92966C277.803 8.13045 278.252 8.43066 278.627 8.81176C279.001 9.19285 279.294 9.64674 279.487 10.1454C279.679 10.6441 279.768 11.1769 279.746 11.711C279.746 12.711 279.302 13.711 278.568 14.4444C278.106 14.9163 277.533 15.2663 276.902 15.463C276.271 15.6597 275.601 15.6969 274.953 15.5714C274.304 15.446 273.696 15.1616 273.184 14.7439C272.672 14.3261 272.271 13.788 272.018 13.1775C271.764 12.5671 271.666 11.9034 271.732 11.2457C271.798 10.5881 272.026 9.95698 272.395 9.40888C272.764 8.86078 273.264 8.41274 273.848 8.10483C274.433 7.79691 275.085 7.6387 275.746 7.64435ZM275.746 6.84435C274.013 6.84435 272.524 7.6888 271.657 9.13324C271.1 10.0342 270.863 11.0966 270.984 12.149C271.105 13.2013 271.577 14.1822 272.324 14.9332C272.759 15.3926 273.282 15.7596 273.862 16.0125C274.441 16.2654 275.066 16.399 275.699 16.4052C276.331 16.4114 276.959 16.2902 277.543 16.0487C278.128 15.8073 278.658 15.4506 279.102 14.9999C280.035 14.111 280.524 12.9332 280.524 11.6221C280.527 10.9939 280.405 10.3713 280.166 9.79028C279.927 9.20928 279.575 8.68141 279.131 8.23717C278.687 7.79292 278.159 7.44111 277.578 7.20204C276.997 6.96298 276.374 6.84141 275.746 6.84435ZM273.746 8.8888V14.1777H275.057V11.9999H275.68L276.702 14.1777H278.124L276.946 11.7999C277.68 11.6221 278.102 11.0888 278.102 10.3999C278.102 9.37768 277.346 8.8888 275.835 8.8888H273.768H273.746ZM275.057 9.6888H275.613C276.391 9.6888 276.768 9.91102 276.768 10.4888C276.768 11.0221 276.413 11.2221 275.68 11.2221H275.057V9.6888Z" fill="white"/>
</g>
</g>
<defs>
<clipPath id="clip0_282_1488">
<rect width="280" height="40" fill="white" transform="translate(0.523438)"/>
</clipPath>
</defs>
</svg>
