<svg width="222" height="40" viewBox="0 0 222 40" fill="none" xmlns="http://www.w3.org/2000/svg">
<g id="Frame" clip-path="url(#clip0_282_1443)">
<g id="Clip path group">
<mask id="mask0_282_1443" style="mask-type:luminance" maskUnits="userSpaceOnUse" x="0" y="0" width="222" height="40">
<g id="a">
<path id="Vector" d="M0.078125 0H221.131V40H0.078125V0Z" fill="white"/>
</g>
</mask>
<g mask="url(#mask0_282_1443)">
<g id="Group">
<path id="Vector_2" d="M120.352 37.3053H148.857V33.8316H125.236V22.6737H142.983V19.1579H125.236V8.88421H148.857V5.41053H120.352V37.3053ZM135.173 0.252632L131.299 4.56842L143.447 0.252632H135.194H135.173ZM196.752 33.8316V5.41053H192.289V37.3053H221.131V33.8316H196.752ZM162.815 25.0526L170.457 9.81053L178.204 25.0526H162.815ZM167.341 5.41053L151.131 37.3053H156.604L160.773 29.0526H180.225L184.415 37.3053H189.826L173.615 5.41053H167.341ZM101.047 20.1474H86.1413V9.17895H101.573C105.11 9.17895 107.11 10.8211 107.826 12.9474C108.31 14.3789 107.994 16.2737 107.194 17.5789C105.931 19.6842 103.489 20.1474 101.047 20.1474ZM104.857 23.9579C112.162 22.0211 112.878 16.5895 112.857 14.6316C112.415 8.94737 108.583 5.38947 101.657 5.38947H81.5518V37.2842H86.1202V23.9158H99.215L108.836 37.2842H114.604C114.604 37.2842 107.678 28.2737 104.836 23.9368M53.8465 36.0421C49.5868 36.0707 45.487 34.4214 42.4337 31.4509C39.3805 28.4803 37.6192 24.4274 37.5308 20.1684C37.5308 11.5158 44.5623 3.95789 54.2044 3.95789C56.3483 3.92119 58.4777 4.31464 60.4669 5.11497C62.4561 5.9153 64.2647 7.10628 65.7858 8.61752C67.3068 10.1288 68.5095 11.9296 69.3226 13.9135C70.1358 15.8975 70.5431 18.0244 70.5202 20.1684C70.5202 28.8421 62.7939 36.0421 53.8465 36.0421ZM54.015 0C41.0887 0 32.2465 9.11579 32.2465 20.1684C32.2465 31.7895 41.9939 40 54.015 40C66.036 40 75.7623 31.9158 75.7623 20.1684C75.7623 9.11579 66.836 0 54.015 0ZM20.7097 16.6947H24.015L30.036 5.41053H25.1939L20.7097 16.6947ZM4.54128 33.8316V5.41053H0.078125V37.3053H28.9202V33.8316H4.52023H4.54128Z" fill="white"/>
</g>
</g>
</g>
</g>
<defs>
<clipPath id="clip0_282_1443">
<rect width="221.053" height="40" fill="white" transform="translate(0.078125)"/>
</clipPath>
</defs>
</svg>
