<svg width="40" height="40" viewBox="0 0 40 40" fill="none" xmlns="http://www.w3.org/2000/svg">
<rect width="40" height="40" rx="20" fill="#8060F6"/>
<path fill-rule="evenodd" clip-rule="evenodd" d="M16.4298 14.3208C16.5988 14.1688 16.8859 14.0627 17.1783 14.2028C17.2001 14.2132 17.2212 14.2253 17.2413 14.2388L24.8315 19.3446C24.8485 19.3561 24.8649 19.3686 24.8804 19.3821C24.9707 19.4606 25.0421 19.5575 25.0906 19.6655C25.1392 19.7735 25.1641 19.8904 25.1641 20.0083C25.1641 20.1262 25.1392 20.2432 25.0906 20.3512C25.0421 20.4591 24.9707 20.5561 24.8804 20.6345C24.8645 20.6484 24.8478 20.6612 24.8302 20.6729L17.2451 25.7432C16.9674 25.9366 16.6472 25.8729 16.4448 25.7049C16.2576 25.5494 16.1641 25.3139 16.1641 25.082V14.9346C16.1641 14.6979 16.2602 14.4734 16.4298 14.3208Z" fill="white"/>
</svg>
